<svg xmlns="http://www.w3.org/2000/svg" viewBox="0 0 1600 900" preserveAspectRatio="xMidYMid slice">
  <defs>
    <linearGradient id="bg" x1="0" y1="0" x2="1" y2="1">
      <stop offset="0" stop-color="#f4f7ff" />
      <stop offset="1" stop-color="#eef2ff" />
    </linearGradient>
    <filter id="blur" x="-20%" y="-20%" width="140%" height="140%">
      <feGaussianBlur stdDeviation="80" />
    </filter>
  </defs>
  <rect width="1600" height="900" fill="url(#bg)" />
  <g filter="url(#blur)" opacity="0.9">
    <path d="M-200 260 C 180 80, 520 120, 780 260 C 1040 400, 1320 360, 1720 200 L 1720 -100 L -200 -100 Z" fill="#93c5fd" />
    <path d="M-200 620 C 200 520, 520 560, 820 700 C 1120 840, 1440 860, 1760 760 L 1760 1100 L -200 1100 Z" fill="#a5b4fc" />
    <path d="M 200 520 C 420 420, 720 420, 960 540 C 1200 660, 1320 700, 1540 660" stroke="#38bdf8" stroke-width="140" fill="none" opacity="0.5" />
  </g>
</svg>
